<?xml version="1.0" standalone="no"?>
<!DOCTYPE svg PUBLIC "-//W3C//DTD SVG 20010904//EN"
 "http://www.w3.org/TR/2001/REC-SVG-20010904/DTD/svg10.dtd">
<svg version="1.0" xmlns="http://www.w3.org/2000/svg"
 width="500.000000pt" height="500.000000pt" viewBox="0 0 500.000000 500.000000"
 preserveAspectRatio="xMidYMid meet">
<metadata>
Created by potrace 1.11, written by Peter Selinger 2001-2013
</metadata>
<g transform="translate(0.000000,500.000000) scale(0.100000,-0.100000)"
fill="#000000" stroke="none">
<path d="M1210 4276 c-351 -142 -607 -329 -800 -585 -58 -77 -62 -85 -46 -97
43 -31 727 -416 732 -412 3 3 45 176 95 384 49 209 92 387 95 397 3 9 1 17 -5
17 -17 0 -237 -127 -344 -198 -56 -38 -146 -104 -200 -146 l-98 -77 33 48 c42
62 226 243 328 324 45 35 127 92 183 127 55 34 104 68 108 75 8 15 33 176 28
182 -2 2 -51 -16 -109 -39z"/>
<path d="M1986 4279 c-141 -44 -374 -133 -452 -172 l-50 -25 -103 -469 c-57
-257 -115 -522 -130 -588 l-27 -120 -401 -3 -402 -2 -110 -118 c-60 -64 -150
-166 -200 -226 l-91 -109 39 -46 c22 -25 52 -59 69 -74 l29 -28 164 0 164 0
80 64 c94 76 299 227 308 227 3 0 -1 -20 -9 -45 -13 -37 -34 -59 -124 -135
-60 -50 -112 -95 -115 -100 -4 -6 80 -10 230 -10 221 0 236 -1 231 -17 -3 -10
-44 -187 -91 -393 l-85 -374 112 -114 113 -114 46 6 c38 4 281 55 285 59 1 1
50 215 110 475 l108 472 1402 0 c1067 0 1405 3 1410 12 5 7 -15 32 -52 65 -99
89 -285 248 -295 251 -5 2 -58 -27 -117 -65 -147 -95 -342 -209 -342 -200 0 2
57 56 127 118 190 170 444 407 443 414 0 4 -550 6 -1221 5 l-1221 -1 6 25 c13
53 306 1381 306 1388 0 12 -2 11 -144 -33z"/>
<path d="M2327 4305 c-22 -75 -249 -1116 -245 -1120 3 -4 313 133 688 303
l682 310 -31 33 -30 34 -213 -106 -213 -106 -93 168 -93 168 -47 -20 c-26 -12
-132 -57 -237 -101 -104 -44 -194 -82 -200 -85 -32 -15 63 56 133 99 45 28 82
55 82 59 0 13 -74 178 -127 284 -38 74 -52 94 -56 80z"/>
<path d="M3525 3743 c-27 -14 -351 -163 -720 -330 -368 -167 -674 -308 -679
-313 -7 -7 64 -10 202 -10 l213 0 577 261 c317 143 581 264 586 269 10 10 -99
150 -117 150 -7 -1 -34 -13 -62 -27z"/>
<path d="M3550 3255 c-173 -78 -321 -147 -330 -153 -11 -8 111 -11 423 -11
240 -1 437 2 437 6 0 3 -35 45 -78 92 -72 79 -78 88 -71 115 7 24 3 36 -17 63
-14 18 -30 33 -37 32 -7 0 -154 -65 -327 -144z"/>
<path d="M134 3235 c-24 -52 -44 -98 -44 -103 0 -4 13 -15 29 -25 25 -14 58
-17 223 -17 106 0 199 4 207 9 10 7 2 15 -30 34 -24 14 -111 64 -192 111
l-149 85 -44 -94z"/>
<path d="M104 2851 l49 -50 53 42 c29 23 53 45 53 50 1 4 -45 7 -101 7 l-102
0 48 -49z"/>
<path d="M338 2018 c-113 -126 -171 -198 -161 -198 8 0 604 268 612 276 2 2
-81 4 -186 4 l-191 0 -74 -82z"/>
<path d="M2345 2088 c11 -6 210 -121 443 -255 l424 -243 104 61 c57 33 104 64
104 68 0 4 -147 91 -326 194 l-326 187 -221 0 c-172 -1 -218 -3 -202 -12z"/>
<path d="M3545 1774 c314 -179 580 -331 592 -336 18 -9 41 3 160 84 76 51 144
98 152 102 7 5 -19 -39 -58 -97 -39 -59 -71 -110 -71 -114 1 -15 203 -174 210
-166 16 16 440 704 440 712 0 5 -41 39 -92 75 l-91 66 -144 0 -145 0 -98 -79
c-84 -68 -178 -136 -229 -166 -19 -11 -8 7 39 65 20 25 60 75 89 113 l53 67
-689 0 -688 0 570 -326z"/>
<path d="M468 1856 l-358 -161 193 -192 c105 -106 195 -193 199 -193 7 0 198
129 198 133 0 1 29 128 65 282 36 153 64 282 63 286 -2 4 -164 -66 -360 -155z"/>
<path d="M1810 2018 c0 -2 -29 -136 -65 -298 -36 -162 -65 -298 -65 -302 0
-11 185 55 333 119 l130 57 24 -30 c14 -16 74 -91 135 -166 60 -76 115 -138
122 -138 34 0 426 146 426 158 0 4 -208 126 -462 272 -557 320 -578 332 -578
328z"/>
<path d="M3392 1622 c-23 -48 -42 -92 -42 -99 0 -6 106 -72 236 -147 l237
-135 86 46 c47 26 98 54 114 63 l27 17 -300 172 c-165 94 -304 171 -308 171
-5 0 -27 -39 -50 -88z"/>
<path d="M2053 1442 c-97 -130 -174 -317 -195 -473 l-12 -87 -71 -21 c-154
-45 -247 -54 -750 -72 -245 -8 -324 -14 -335 -25 -11 -9 -58 -16 -143 -20 -81
-5 -127 -11 -127 -18 0 -6 14 -35 30 -63 l30 -53 463 0 c581 0 909 20 1031 63
37 12 43 12 80 -9 90 -49 97 -49 946 -48 620 0 852 4 1054 17 259 16 259 16
287 43 16 15 29 31 29 36 0 4 -139 8 -308 8 -170 0 -350 3 -401 7 -82 5 -92 8
-88 24 4 15 -5 18 -77 23 -44 3 -216 8 -381 11 -513 10 -807 29 -859 57 -33
18 -18 123 38 261 l48 116 -104 127 c-57 69 -108 132 -114 140 -18 22 -26 17
-71 -44z"/>
</g>
</svg>
